<svg xmlns="http://www.w3.org/2000/svg" width="131.622" height="38.963" viewBox="0 0 131.622 38.963">
  <g id="Group_1" data-name="Group 1" transform="translate(-89.105 -59.506)">
    <path id="Path_1" data-name="Path 1" d="M97.666,95.356a9.5,9.5,0,0,1-2.821-.417,8.111,8.111,0,0,1-2.469-1.25,8.617,8.617,0,0,1-1.956-2.037,9.816,9.816,0,0,1-1.315-2.805l4.072-1.6a6.212,6.212,0,0,0,1.571,2.87,3.955,3.955,0,0,0,2.95,1.139,4.748,4.748,0,0,0,1.3-.177,3.83,3.83,0,0,0,1.123-.513,2.475,2.475,0,0,0,.786-.85,2.373,2.373,0,0,0,.289-1.186,2.848,2.848,0,0,0-.225-1.154,2.7,2.7,0,0,0-.753-.962,6.679,6.679,0,0,0-1.379-.866,20.917,20.917,0,0,0-2.1-.866l-1.411-.513a10.759,10.759,0,0,1-1.876-.866,8.219,8.219,0,0,1-1.716-1.314,6.493,6.493,0,0,1-1.266-1.812,5.4,5.4,0,0,1-.5-2.356A6.043,6.043,0,0,1,90.5,75.3a6.155,6.155,0,0,1,1.507-2.052,7.057,7.057,0,0,1,2.341-1.379,9.689,9.689,0,0,1,6.028-.032,7.4,7.4,0,0,1,2.149,1.186,6.64,6.64,0,0,1,1.427,1.587,7.687,7.687,0,0,1,.8,1.635l-3.815,1.6a4.068,4.068,0,0,0-1.17-1.732,3.334,3.334,0,0,0-2.325-.769,3.959,3.959,0,0,0-2.341.657,2.013,2.013,0,0,0-.929,1.715,2.171,2.171,0,0,0,.9,1.748,9.774,9.774,0,0,0,2.854,1.394l1.443.481a16.571,16.571,0,0,1,2.517,1.107,7.89,7.89,0,0,1,1.956,1.491,6.07,6.07,0,0,1,1.25,1.971,6.978,6.978,0,0,1,.432,2.55,6.275,6.275,0,0,1-.721,3.094,6.616,6.616,0,0,1-1.844,2.132,8,8,0,0,1-2.533,1.25,9.725,9.725,0,0,1-2.758.417" transform="translate(0 -10.134)" fill="#65bebe"/>
    <path id="Path_2" data-name="Path 2" d="M224.635,121.022a8.735,8.735,0,0,1,3.351.625,7.774,7.774,0,0,1,4.361,4.377,9.378,9.378,0,0,1,0,6.733,7.771,7.771,0,0,1-4.361,4.377,9.291,9.291,0,0,1-6.7,0,7.767,7.767,0,0,1-4.36-4.377,9.368,9.368,0,0,1,0-6.733,7.769,7.769,0,0,1,4.36-4.377,8.734,8.734,0,0,1,3.35-.625m0,12.857a4.114,4.114,0,0,0,1.555-.3,3.958,3.958,0,0,0,1.331-.882,4.175,4.175,0,0,0,.914-1.411,5.487,5.487,0,0,0,0-3.783,4.175,4.175,0,0,0-.914-1.411,3.969,3.969,0,0,0-1.331-.882,4.114,4.114,0,0,0-1.555-.3,4.071,4.071,0,0,0-1.571.3,4.009,4.009,0,0,0-1.315.882,4.177,4.177,0,0,0-.914,1.411,5.489,5.489,0,0,0,0,3.783,4.177,4.177,0,0,0,.914,1.411,4,4,0,0,0,1.315.882,4.071,4.071,0,0,0,1.571.3" transform="translate(-108.628 -52.537)" fill="#65bebe"/>
    <path id="Path_3" data-name="Path 3" d="M358.007,138.2h-.256a5.321,5.321,0,0,1-1.988,1.875,5.812,5.812,0,0,1-2.854.69,5.337,5.337,0,0,1-4.441-1.828,7.586,7.586,0,0,1-1.459-4.873v-9.523h4.2v9.01a3.614,3.614,0,0,0,.753,2.516,2.838,2.838,0,0,0,2.2.818,3.062,3.062,0,0,0,1.523-.369,3.547,3.547,0,0,0,1.122-.994,4.5,4.5,0,0,0,.706-1.474,6.616,6.616,0,0,0,.24-1.812v-7.7h4.2v15.711h-3.943Z" transform="translate(-220.261 -55.539)" fill="#65bebe"/>
    <path id="Path_4" data-name="Path 4" d="M473.983,74.888h4.2v12.5h.193l5.258-5.259h5.194v.257l-5.835,5.676,6.317,9.523v.256h-4.97l-4.3-6.894-1.859,1.827v5.067h-4.2Z" transform="translate(-328.703 -13.137)" fill="#65bebe"/>
    <path id="Path_5" data-name="Path 5" d="M596.775,133.239a8.772,8.772,0,0,1-2.87,3.255,7.939,7.939,0,0,1-4.6,1.266,8.736,8.736,0,0,1-3.35-.625,7.793,7.793,0,0,1-2.629-1.748,8.108,8.108,0,0,1-1.732-2.645,8.753,8.753,0,0,1-.625-3.351,8.874,8.874,0,0,1,.625-3.367,7.774,7.774,0,0,1,4.361-4.376,8.738,8.738,0,0,1,3.35-.625,8.034,8.034,0,0,1,4.585,1.25,7.4,7.4,0,0,1,2.725,3.238l-3.847,1.6a4.137,4.137,0,0,0-1.395-1.651,3.792,3.792,0,0,0-2.133-.561,3.9,3.9,0,0,0-1.571.321,4.036,4.036,0,0,0-1.3.9,4.113,4.113,0,0,0-.882,1.411,5.549,5.549,0,0,0,0,3.72,4.094,4.094,0,0,0,.882,1.411,4.029,4.029,0,0,0,1.3.9,3.893,3.893,0,0,0,1.571.32,4,4,0,0,0,2.229-.594,4.143,4.143,0,0,0,1.459-1.715Z" transform="translate(-420.072 -52.538)" fill="#65bebe"/>
    <path id="Path_6" data-name="Path 6" d="M706.846,74.888h4.2v6.445l-.256,2.854h.256a5.2,5.2,0,0,1,1.94-1.844,5.627,5.627,0,0,1,2.838-.722,5.463,5.463,0,0,1,4.5,1.8,7.567,7.567,0,0,1,1.459,4.906v9.523h-4.2v-9.01a3.585,3.585,0,0,0-.769-2.485,2.751,2.751,0,0,0-2.149-.849,3.151,3.151,0,0,0-1.539.369,3.422,3.422,0,0,0-1.138,1.01,4.691,4.691,0,0,0-.706,1.491,6.622,6.622,0,0,0-.24,1.812v7.663h-4.2Z" transform="translate(-527.578 -13.137)" fill="#65bebe"/>
    <rect id="Rectangle_1" data-name="Rectangle 1" width="4.201" height="15.711" transform="translate(197.93 68.998)" fill="#65bebe"/>
    <path id="Path_7" data-name="Path 7" d="M898.4,133.239a8.772,8.772,0,0,1-2.87,3.255,7.941,7.941,0,0,1-4.6,1.266,8.736,8.736,0,0,1-3.35-.625,7.8,7.8,0,0,1-2.629-1.748,8.113,8.113,0,0,1-1.732-2.645,8.753,8.753,0,0,1-.625-3.351,8.874,8.874,0,0,1,.625-3.367,7.773,7.773,0,0,1,4.361-4.376,8.739,8.739,0,0,1,3.35-.625,8.038,8.038,0,0,1,4.585,1.25,7.41,7.41,0,0,1,2.725,3.238l-3.847,1.6a4.138,4.138,0,0,0-1.4-1.651,3.789,3.789,0,0,0-2.132-.561,3.9,3.9,0,0,0-1.572.321,4.034,4.034,0,0,0-1.3.9,4.109,4.109,0,0,0-.882,1.411,5.549,5.549,0,0,0,0,3.72,4.09,4.09,0,0,0,.882,1.411,4.026,4.026,0,0,0,1.3.9,3.9,3.9,0,0,0,1.572.32,4,4,0,0,0,2.229-.594,4.139,4.139,0,0,0,1.458-1.715Z" transform="translate(-677.67 -52.538)" fill="#65bebe"/>
    <path id="Path_8" data-name="Path 8" d="M826.7,67.188a3.859,3.859,0,0,1-2.72-1.121,3.86,3.86,0,0,1-.823-1.212,3.987,3.987,0,0,1,0-3.018,3.877,3.877,0,0,1,.823-1.212,3.859,3.859,0,0,1,2.72-1.121,3.784,3.784,0,0,1,2.744,1.121,3.809,3.809,0,0,1,0,5.441,3.778,3.778,0,0,1-2.744,1.121" transform="translate(-626.66 0)" fill="#f06a89"/>
    <path id="Path_9" data-name="Path 9" d="M586.62,266.7h-2.566l-.524,2.423H582.1l.524-2.423H580.6V265.4h2.3l.485-2.265h-2.017v-1.31h2.292l.511-2.383H585.6l-.511,2.383h2.567l.51-2.383h1.427l-.511,2.383h1.742v1.31h-2.017l-.484,2.265h1.728v1.31h-2l-.523,2.423H586.1Zm.76-3.575h-2.567l-.484,2.265H586.9Z" transform="translate(-419.756 -170.75)" fill="#f06a89"/>
    <path id="Path_10" data-name="Path 10" d="M662.78,263.476h5.356v1.218h-3.863v2.684h3.012V268.6h-3.012v3.981H662.78Z" transform="translate(-489.943 -174.199)" fill="#f06a89"/>
    <path id="Path_11" data-name="Path 11" d="M710.229,271.979a4.655,4.655,0,1,1,4.649-4.662,4.555,4.555,0,0,1-4.649,4.662m0-1.3a3.361,3.361,0,1,0-3.116-3.365,3.082,3.082,0,0,0,3.116,3.365" transform="translate(-526.497 -173.509)" fill="#f06a89"/>
    <path id="Path_12" data-name="Path 12" d="M782.473,263.475c2.16,0,3.222,1.245,3.222,2.724a2.592,2.592,0,0,1-2.109,2.606l2.252,3.771h-1.781l-2.1-3.641h-1.139v3.641H779.33v-9.1Zm0,1.218h-1.65v3.051h1.65c1.165,0,1.69-.642,1.69-1.545s-.524-1.506-1.69-1.506" transform="translate(-589.482 -174.198)" fill="#f06a89"/>
    <path id="Path_13" data-name="Path 13" d="M841.809,268.6h-4.282v3.981h-1.493v-9.1h1.493v3.9h4.282v-3.9H843.3v9.1h-1.493Z" transform="translate(-637.91 -174.2)" fill="#f06a89"/>
    <path id="Path_14" data-name="Path 14" d="M904.316,264.6H900.78v2.671h3.142v1.218H900.78v2.789h3.536V272.5h-5.029v-9.115h5.029Z" transform="translate(-691.93 -174.123)" fill="#f06a89"/>
    <path id="Path_15" data-name="Path 15" d="M949.446,263.475c2.161,0,3.222,1.245,3.222,2.724a2.591,2.591,0,0,1-2.109,2.606l2.253,3.771h-1.781l-2.1-3.641H947.8v3.641H946.3v-9.1Zm0,1.218H947.8v3.051h1.65c1.166,0,1.69-.642,1.69-1.545s-.524-1.506-1.69-1.506" transform="translate(-732.085 -174.198)" fill="#f06a89"/>
  </g>
</svg>
